<svg id="Layer_1" data-name="Layer 1" xmlns="http://www.w3.org/2000/svg" viewBox="0 0 128 120"><defs><style>.cls-1{fill:none;}.cls-2{fill:#fff;}</style></defs><title>big-heart</title><rect class="cls-1" width="127.9" height="120"/><path class="cls-2" d="M23.3,73.5a17.7,17.7,0,0,0,4.6-1c.1,0,.3.4.3.6s-.3.8-.3,2.8,0,4.6,0,5.3h.1a7.2,7.2,0,0,1,3.8-1.7c2.4,0,3.7,1.8,3.7,4.6s0,3.8,0,5.1a.8.8,0,0,0,.5.8l1.4.3c.1.1,0,1-.2,1.1H31.3a1.4,1.4,0,0,1,0-1.1l1.1-.2c.5-.1.6-.4.6-1.4a47.8,47.8,0,0,0-.1-5.3,2.5,2.5,0,0,0-2.6-2,4.1,4.1,0,0,0-2.2.7.9.9,0,0,0-.3.7c0,1.9,0,5.2.1,6s.1,1.1.7,1.3l1.2.2c.2.1.1,1-.1,1.1h-6a1.3,1.3,0,0,1,0-1.1l1.1-.3c.5-.2.6-.4.6-1.1s.1-3.9.1-4.6c0-6.3,0-7.8-.1-8.8s-.1-.7-.5-.8l-1.6-.2C23,74.4,23.1,73.5,23.3,73.5Z"/><path class="cls-2" d="M49.1,88.6a2.8,2.8,0,0,1-.2,1,6.8,6.8,0,0,1-4.6,2.1,4.9,4.9,0,0,1-3.6-1.3A6.5,6.5,0,0,1,39,85.7a5.9,5.9,0,0,1,2.6-5.2,6.3,6.3,0,0,1,3.2-1c2.8,0,3.9,2.4,4.1,4.2a.8.8,0,0,0,.5.3,2.3,2.3,0,0,1-.3.9,57,57,0,0,1-7.5.6c-.1,0-.1.2-.1.3a4.2,4.2,0,0,0,1.2,2.6,4,4,0,0,0,3,1.1A5.5,5.5,0,0,0,49,88.4Zm-7.7-4.7c0,.1.1.2.2.2l4.7-.2a.3.3,0,0,0,.1-.3c-.2-1.4-1.1-2.8-2.6-2.8S41.6,82.2,41.4,83.9Z"/><path class="cls-2" d="M57.1,82.3a2.5,2.5,0,0,0-2.1-1,2.2,2.2,0,0,0-1.3.3,8.7,8.7,0,0,0-1.2,2c-.1.1-1.1-.3-1.1-.6a6.6,6.6,0,0,1,.8-1.9,10.1,10.1,0,0,1,3.8-1.5,3.4,3.4,0,0,1,3,1.5,5,5,0,0,1,.7,2.8c0,1.4-.1,3.6-.1,4.8s.3,1,1.1,1h1a2.9,2.9,0,0,1-.1,1.1,3.7,3.7,0,0,1-2.4,1,1.5,1.5,0,0,1-1.5-.8,2.3,2.3,0,0,1-.2-.6h-.1a7.5,7.5,0,0,1-3.5,1.5,2.6,2.6,0,0,1-1.6-.8,3.7,3.7,0,0,1-1-2.5,3.5,3.5,0,0,1,.6-1.8c1.1-.5,4.2-1.2,5.4-1.8l.2-.3a1.8,1.8,0,0,0,.1-.5A3.1,3.1,0,0,0,57.1,82.3Zm.1,3.5c-.8.3-2.6.8-3.2,1.2a1.4,1.4,0,0,0-.3.9,1.8,1.8,0,0,0,2,1.8,2.7,2.7,0,0,0,1.3-.4.9.9,0,0,0,.4-.7c.1-.4.1-2.2.1-2.7Z"/><path class="cls-2" d="M71.7,80.2a1.3,1.3,0,0,1,0,.5,8.1,8.1,0,0,1-.9,2h-.3a3.5,3.5,0,0,0-2-1A2.1,2.1,0,0,0,67.1,83a1.5,1.5,0,0,0-.2.8c0,2.2,0,4.8.1,5.4s.1.7.6.9l2,.3a2,2,0,0,1-.1,1.1H62.7a1.9,1.9,0,0,1,0-1.1l1.2-.2c.3-.1.5-.3.5-.8s.1-2.7.1-4.5,0-1.7,0-2.1-.4-.8-1.6-1.3a1.7,1.7,0,0,1,.1-.8,13.6,13.6,0,0,0,3.8-1.1v.2c0,.3-.1,1.5-.1,2s.1.1.2.1A8.9,8.9,0,0,1,68.8,80a2.5,2.5,0,0,1,1.5-.5A1.7,1.7,0,0,1,71.7,80.2Z"/><path class="cls-2" d="M77.2,81.6h-.1c0,1.1,0,3,0,4.5a7.9,7.9,0,0,0,.2,2.3,1.7,1.7,0,0,0,1.8,1.2,3.2,3.2,0,0,0,1.9-.5,2.7,2.7,0,0,1-.2,1.2,3.9,3.9,0,0,1-3,1.2,2.9,2.9,0,0,1-2.7-1.5c-.4-.7-.4-1.5-.4-3.3s0-4,0-5.1a.3.3,0,0,0-.2-.3H72.9a2.3,2.3,0,0,1,.3-1.2l1.4-.3a.3.3,0,0,0,.1-.3V77.2A14.4,14.4,0,0,0,76.7,76h.6c0,.5-.1,1.9-.1,3.8,0,.1.1.2.1.2H81a13,13,0,0,0-.3,1.8Z"/><path class="cls-2" d="M53.3,45.7c-2.3,0-5.9,1.7-8.7,3.2-.1.1-.4-.1-.4-.2V44.2c0-11.8.4-12.3.9-13.1s-.2-1.2-.4-1.2a16.3,16.3,0,0,1-5.6,1c-2-.1-3.7-.9-5.3-.8a2.5,2.5,0,0,0-.1,2.2,19.4,19.4,0,0,1,3.2,1c1.3.3,1.7,2.3,1.8,3.1.2,2.7.2,11.4.3,19.8s-.1,11.2-.3,15.8a1.1,1.1,0,0,0,.6.4,5.5,5.5,0,0,1,3.1-.1,22.6,22.6,0,0,0,6,.8,19.6,19.6,0,0,0,10-3.6,14.5,14.5,0,0,0,5.7-12.1,12.8,12.8,0,0,0-3-8.4A9.6,9.6,0,0,0,53.3,45.7Zm2.4,21.7a6.1,6.1,0,0,1-4.8,2.3A8.5,8.5,0,0,1,45.6,68a3.5,3.5,0,0,1-1.1-2.5c-.2-2.1-.2-11.8,0-13.3a1.8,1.8,0,0,1,.7-1.1,10.1,10.1,0,0,1,4.6-1.3,7.2,7.2,0,0,1,6.1,2.9,12.3,12.3,0,0,1,2,7.5A12.8,12.8,0,0,1,55.7,67.4Z"/><path class="cls-2" d="M79.7,69.4a1.9,1.9,0,0,1-1.3-2.1c-.1-2.7-.1-6.8-.1-10.3V45.5a39.1,39.1,0,0,1-9.1,1.9,2.2,2.2,0,0,0-.4,2,9.7,9.7,0,0,1,3.4,1.8,2,2,0,0,1,.6,1.4v6.4c0,3.4,0,6.9-.1,8.4s-.2,1.7-1.1,2a15.1,15.1,0,0,1-2.9.6,3,3,0,0,0,.1,2.5l6.5-.2c4.3,0,5.8.2,7.1.2a3.5,3.5,0,0,0,.3-2.5Z"/><path class="cls-2" d="M107.6,69.6c-2.2-.8-7.3-1-10.7-1.3-1.7-.1-2.7-.7-2.7-1.8s1-1.3,1.4-1.5h1.5a13.1,13.1,0,0,0,6.7-2.6c2.2-1.7,3.9-3.8,3.9-8.4a13.6,13.6,0,0,0-.3-2.2l.2-.2H109a2.9,2.9,0,0,0,2.5-1,9.2,9.2,0,0,0,1.5-3.9c-.1-.1-.8-.6-1.1-.6a4.7,4.7,0,0,1-3.9,1.5,9.5,9.5,0,0,1-3.6-.6,16.6,16.6,0,0,0-6.2-1.4,16.4,16.4,0,0,0-8.3,2.8,8.9,8.9,0,0,0-3.7,7.3c0,5.1,2.6,7.7,6,8.9a.2.2,0,0,1,.1.3c-1,.8-3.2,2-4.1,2.7a4.5,4.5,0,0,0-.4,1.4,5.8,5.8,0,0,0,3.8,3.7c.1,0,.1.1,0,.1a37.3,37.3,0,0,0-5.9,4.6,7,7,0,0,0,2.5,8.4,12.5,12.5,0,0,0,8.1,2.4,17.1,17.1,0,0,0,7.6-1.7c5.2-2.5,8-6.7,8-10.7A6.5,6.5,0,0,0,107.6,69.6ZM91.7,54.3c0-3.7,2-5.8,4.6-5.8,4.4,0,5.9,3.6,5.9,7.4a7.2,7.2,0,0,1-1.7,5.1A4.3,4.3,0,0,1,97.7,62C93.3,62,91.7,58,91.7,54.3Zm7.2,30.4a9.8,9.8,0,0,1-6.6-2,4.9,4.9,0,0,1-1.9-3.9c0-1.6,1-3.1,3.3-4.6a4.6,4.6,0,0,1,2.3-.6,25.1,25.1,0,0,1,7.9,1,4.2,4.2,0,0,1,3.1,4.2C106.9,81.6,104.5,84.7,98.9,84.7Z"/><path class="cls-2" d="M18.9,18.9h-.1c0,.8,0,2.3,0,3.5a6.1,6.1,0,0,0,.2,1.8,1.3,1.3,0,0,0,1.4.9,2.5,2.5,0,0,0,1.5-.4,2.1,2.1,0,0,1-.1.9,3,3,0,0,1-2.3,1,2.2,2.2,0,0,1-2.1-1.1,5,5,0,0,1-.4-2.5c0-1.3,0-3.1,0-4a.2.2,0,0,0-.2-.2H15.5a1.8,1.8,0,0,1,.2-.9l1.1-.3a.2.2,0,0,0,.1-.2v-2l1.5-1h.5c0,.4-.1,1.5-.1,3v.2h2.9a10,10,0,0,0-.2,1.4Z"/><path class="cls-2" d="M22.3,12.6a13.7,13.7,0,0,0,3.5-.8c.1,0,.2.3.2.4s-.2.6-.2,2.1,0,3.6,0,4.1h.1a5.5,5.5,0,0,1,2.9-1.3c1.8,0,2.9,1.4,2.9,3.5s.1,2.9.1,3.9a.6.6,0,0,0,.4.6l1,.2c.1.1,0,.8-.1.9H28.6a1.1,1.1,0,0,1,0-.9h.8c.4-.1.5-.3.5-1.1a37.3,37.3,0,0,0-.1-4.1,1.9,1.9,0,0,0-2-1.5,3.2,3.2,0,0,0-1.7.6.7.7,0,0,0-.3.5c0,1.5.1,4,.1,4.6s.1.9.6,1h.9c.2.1.1.8,0,.9H22.7a1,1,0,0,1,0-.9l.8-.2c.4-.1.5-.3.5-.9s0-3,0-3.5c-.1-4.9,0-6-.1-6.8s-.1-.6-.4-.6l-1.2-.2C22.1,13.3,22.1,12.7,22.3,12.6Z"/><path class="cls-2" d="M42.4,24.1a2.2,2.2,0,0,1-.1.8,5.3,5.3,0,0,1-3.5,1.6,3.7,3.7,0,0,1-2.8-1A5,5,0,0,1,34.6,22a4.6,4.6,0,0,1,1.9-4.1,4.9,4.9,0,0,1,2.5-.8c2.2,0,3,1.8,3.2,3.2l.4.3a1.8,1.8,0,0,1-.2.7,44,44,0,0,1-5.8.5c-.1,0-.1.1-.1.2a3.2,3.2,0,0,0,1,2,3.1,3.1,0,0,0,2.3.8,4.2,4.2,0,0,0,2.5-.9Zm-6-3.5s0,.2.2.2l3.6-.2v-.2a2.3,2.3,0,0,0-2-2.2C37.2,18.2,36.5,19.2,36.4,20.6Z"/><path class="cls-2" d="M74.9,43.4h0Z"/><path class="cls-2" d="M70.8,36.8c1-1.9,5.3-1.7,5.8-2.5s-.2-2.1-.7-2.6l-.4-.3h0c-1.1-1-3.8-3.3-6.1-4a5.8,5.8,0,0,0-5.3.6s-3.7,2.4,1.3,10.4a10.4,10.4,0,0,0,6.9,5.1C71.9,42.9,69.4,39.6,70.8,36.8Z"/><path class="cls-2" d="M79.8,27.7a3.4,3.4,0,0,0-3.6-.6,8.3,8.3,0,0,0-2.7,2.2l1.2,1,1.1,1.2a3.4,3.4,0,0,1,1.8,2.8c0,1.5-3.6,2.2-3.9,3.3-1,3.3,2.9,5,3,5A8.8,8.8,0,0,0,79.9,38C82.7,30,79.8,27.7,79.8,27.7Z"/><path class="cls-2" d="M27,100a3.1,3.1,0,0,1,2.1.8,2.4,2.4,0,0,1,.9,1.9,3.1,3.1,0,0,1-.9,2.2,2.9,2.9,0,0,1-2.1.9,2.6,2.6,0,0,1-2-.9,2.9,2.9,0,0,1-.8-2.1,2.7,2.7,0,0,1,.9-2A2.8,2.8,0,0,1,27,100Zm-1.5,2.5a3.4,3.4,0,0,0,.5,1.8,1.5,1.5,0,0,0,1.3.8,1.1,1.1,0,0,0,1-.7,3.1,3.1,0,0,0,.4-1.5,3.1,3.1,0,0,0-.5-1.7,1.5,1.5,0,0,0-1.3-.7,1.2,1.2,0,0,0-1.1.6A2.5,2.5,0,0,0,25.5,102.6Z"/><path class="cls-2" d="M34.6,96.6a1.7,1.7,0,0,1,1,.4,1,1,0,0,1,.5.7.7.7,0,0,1-.1.4l-.4.2h-.4v-.3a.9.9,0,0,0-.8-.4,1.4,1.4,0,0,0-1,.4,1.4,1.4,0,0,0-.4,1v1.4h1.4v.5l-.2.2h-.9q-.2,0-.2.3v3a.8.8,0,0,0,.6.8q.6.2.6.3c0,.2-.2.3-.5.3H31c-.3,0-.5-.1-.5-.3s.2-.2.6-.3l.4-.3a1.1,1.1,0,0,0,.1-.5v-3q0-.2-.6-.2h-.4q0-.2.8-.5t.2-.4a3.6,3.6,0,0,1,.8-2.4A2.7,2.7,0,0,1,34.6,96.6Z"/><path class="cls-2" d="M46.5,104a1.2,1.2,0,0,0,.6,1.1h.6v.2q0,.2-.4.2H44.3q-.4,0-.4-.2v-.2h.6a1,1,0,0,0,.6-1.1l-.2-4.2q0-.2-.2-.2l-.2.2L43,104l-.4.7-.3.5L42,105l-.3-.7-1.6-4.2-.2-.3h-.1v.3l-.2,3.7a2,2,0,0,0,.1.7.7.7,0,0,0,.3.5h.6v.2q0,.2-.4.2H37.7c-.3,0-.4-.1-.4-.2v-.2H38q.6-.3.8-1.4l.4-3.5a2.2,2.2,0,0,0,0-.9l-.4-.6-.3-.2-.3-.2v-.2q0-.2.4-.2H40l.5.2.4.6,1.5,3.8v.2h.2v-.3l2.1-4.3.2-.3h2.1c.1,0,.2.1.2.2v.2l-.5.2a.8.8,0,0,0-.4.4,1.9,1.9,0,0,0-.1.8Z"/><path class="cls-2" d="M52.6,101.4q0,.9-.4.9h-3a1.2,1.2,0,0,0-.1.4,2.4,2.4,0,0,0,.5,1.4,1.4,1.4,0,0,0,1.2.6l.9-.2h.5c.1,0,.2.1.2.2s-.2.4-.6.7a2.9,2.9,0,0,1-1.5.3,1.9,1.9,0,0,1-1.7-.9,3.4,3.4,0,0,1-.6-2.1,2.8,2.8,0,0,1,.8-2,2.7,2.7,0,0,1,2-.8,1.9,1.9,0,0,1,1.2.4A1.2,1.2,0,0,1,52.6,101.4Zm-3.3.1h1.9c.1,0,.2-.1.2-.4a.6.6,0,0,0-.2-.5l-.5-.2a1.4,1.4,0,0,0-.9.3Q49.4,101.3,49.4,101.5Z"/><path class="cls-2" d="M54.7,105.6H53.5c-.3,0-.4-.1-.4-.3s.2-.2.5-.3l.4-.3a1.1,1.1,0,0,0,.1-.5v-2.6a.7.7,0,0,0-.2-.4l-.4-.3c-.2-.1-.3-.2-.3-.3s.1-.2.4-.3l.7-.3.7-.2h.1a1,1,0,0,1,0,.3v.3h.3l.5-.3.6-.2q.8,0,.8.6a1.1,1.1,0,0,1-.4.8h-.2l-.4-.2-.5-.2-.5.2a.5.5,0,0,0-.2.4v2.6a.9.9,0,0,0,.2.5l.5.3q.5.2.5.3c0,.2-.2.3-.4.3H54.7Z"/><path class="cls-2" d="M60,105.8a1.5,1.5,0,0,1-1-.4,1.5,1.5,0,0,1-.4-1.1v-3.1h0s0,0,0,0h-.8v-.2l.4-.3.3-.3.2-.2.3-.2.2-.2h.2q.2,0,.2.3v.4c0,.1.1.2.3.2h1.3q.3,0,.3.3v.3l-.2.2H59.9q-.2,0-.2.3v2.5a1.9,1.9,0,0,0,.2.9.6.6,0,0,0,.5.3h1c.1,0,.2.1.2.2s-.2.4-.5.6A1.7,1.7,0,0,1,60,105.8Z"/><path class="cls-2" d="M67.8,104.2q0,.7.5.9t.5.3H66.2c-.3,0-.4-.1-.4-.3s.2-.2.5-.3.3-.3.3-.8v-2a1.8,1.8,0,0,0-.3-1.1,1,1,0,0,0-.8-.5,1.2,1.2,0,0,0-.9.4,1.5,1.5,0,0,0-.3,1.1v2.1c0,.5.1.8.3.8s.5.2.5.3-.1.3-.4.3H62.5c-.3,0-.4-.1-.4-.3s.2-.2.5-.3l.4-.3a1.1,1.1,0,0,0,.1-.5V98.2a.5.5,0,0,0-.1-.3l-.4-.3q-.3-.1-.3-.3c0-.1.1-.2.4-.3h1.5a1,1,0,0,1,0,.3v3.4h.3a2.5,2.5,0,0,1,1.6-.5,1.5,1.5,0,0,1,1.2.5,1.9,1.9,0,0,1,.5,1.3Z"/><path class="cls-2" d="M71.2,105.2l-1.5-3.7q-.3-.8-.5-.8c-.3-.1-.4-.2-.4-.3s.1-.3.3-.3h2v.2c0,.1-.1.2-.4.3h-.1a.3.3,0,0,0,0,.2l1.1,2.7q.1.3.2,0l.9-2.3a1.5,1.5,0,0,0,.1-.5v-.2h-.1q-.4-.1-.4-.3v-.2h1.6c.2,0,.3.1.3.3s-.1.2-.4.3-.4.3-.6.8l-2.5,6.7a1.9,1.9,0,0,1-.4.7,1,1,0,0,1-.7.3l-.5-.2a.8.8,0,0,1-.2-.5.7.7,0,0,1,.2-.5l.5-.2a1,1,0,0,0,.9-.6,4.8,4.8,0,0,0,.5-1.5A.9.9,0,0,0,71.2,105.2Z"/><path class="cls-2" d="M76.1,105.6H75c-.3,0-.4-.1-.4-.3s.2-.2.5-.3l.4-.3a1.1,1.1,0,0,0,.1-.5v-2.6a.7.7,0,0,0-.2-.4L75,101c-.2-.1-.3-.2-.3-.3s.1-.2.4-.3l.7-.3.7-.2h.1a1,1,0,0,1,0,.3v.3h.3l.5-.3.6-.2q.8,0,.8.6a1.1,1.1,0,0,1-.4.8h-.2l-.4-.2-.5-.2-.5.2a.5.5,0,0,0-.2.4v2.6a.9.9,0,0,0,.2.5l.5.3q.5.2.5.3c0,.2-.2.3-.4.3H76.1Z"/><path class="cls-2" d="M85.2,99c0-.3-.1-.4-.2-.4h-2l-.2.3v.4h-.2q-.2,0-.2-.3V99a3.4,3.4,0,0,0,0-.5v-.8h.2l.4.2.8.2h4.6l.9-.2h.6V98a2.3,2.3,0,0,0,0,.3c0,.1,0,.3,0,.5v.4q0,.3-.2.3t-.5-.6c-.2-.2-.3-.4-.5-.4h-2q-.2,0-.2.4v5.1a1,1,0,0,0,.1.6l.5.4h.6v.2q0,.2-.4.2H84.3q-.4,0-.4-.2v-.2h.6l.5-.4a1,1,0,0,0,.1-.6Z"/><path class="cls-2" d="M91.8,105.2l-1.5-3.7q-.3-.8-.5-.8c-.3-.1-.4-.2-.4-.3s.1-.3.3-.3h2v.2c0,.1-.1.2-.4.3h-.1a.3.3,0,0,0,0,.2l1.1,2.7q.1.3.2,0l.9-2.3a1.5,1.5,0,0,0,.1-.5v-.2h-.1q-.4-.1-.4-.3v-.2h1.6c.2,0,.3.1.3.3s-.1.2-.4.3-.4.3-.6.8l-2.5,6.7a1.9,1.9,0,0,1-.4.7,1,1,0,0,1-.7.3l-.5-.2a.8.8,0,0,1-.2-.5.7.7,0,0,1,.2-.5l.5-.2a1,1,0,0,0,.9-.6,4.8,4.8,0,0,0,.5-1.5A.9.9,0,0,0,91.8,105.2Z"/><path class="cls-2" d="M100.1,96.7h.1a1,1,0,0,1,0,.3v7.5c0,.2.1.4.2.4h.9a.3.3,0,0,1-.2.3l-.9.3-.9.2-.2-.2v-.5q0-.2-.2,0a1.5,1.5,0,0,1-1.3.6,2.3,2.3,0,0,1-1.7-.7,2.5,2.5,0,0,1-.7-1.8A3.6,3.6,0,0,1,96,101a2.4,2.4,0,0,1,2-1,1.4,1.4,0,0,1,1,.3h.1V98.2a.5.5,0,0,0-.2-.3l-.4-.3q-.3-.1-.3-.3c0-.1.1-.2.4-.3h1.4Zm-3.7,5.9a2.9,2.9,0,0,0,.4,1.6,1.4,1.4,0,0,0,1.3.7l.7-.2a.7.7,0,0,0,.3-.6v-2a1.5,1.5,0,0,0-.4-1.1,1.4,1.4,0,0,0-1-.5,1,1,0,0,0-.9.6A3.1,3.1,0,0,0,96.4,102.6Z"/><path class="cls-2" d="M105.3,101H104c-.1,0-.2.1-.2.3v3q0,.7.2.8t.6.4c0,.2-.2.3-.4.3h-2.1c-.3,0-.5-.1-.5-.3s.2-.2.6-.3l.4-.3a1.1,1.1,0,0,0,.1-.5v-3q0-.2-.6-.2h-.4q0-.2.8-.5t.2-.4a3.2,3.2,0,0,1,.3-1.3,4.1,4.1,0,0,1,1.1-1.4,2.5,2.5,0,0,1,1.7-.6,2.1,2.1,0,0,1,1.2.3.9.9,0,0,1,.4.8.5.5,0,0,1-.3.4l-.6.2h-.2l-.2-.2-.3-.3a1.1,1.1,0,0,0-.8-.4l-.6.3a1.6,1.6,0,0,0-.4.7,5.2,5.2,0,0,0-.2.9,7.3,7.3,0,0,0-.1,1c0,.1.1.2.3.2h2.1l.9-.3h.1a1.1,1.1,0,0,1,0,.3v4a1.1,1.1,0,0,0,.1.5l.4.3q.6.2.6.3c0,.2-.2.3-.4.3h-2.1c-.3,0-.5-.1-.5-.3s.2-.3.6-.4.3-.3.3-.8v-2.6Q106.1,101,105.3,101Z"/><path class="cls-2" d="M109.7,98.2a.5.5,0,0,0-.1-.3l-.4-.3q-.3-.1-.3-.3c0-.1.1-.2.4-.3h1.5a1,1,0,0,1,0,.3v7.2a1.1,1.1,0,0,0,.1.5l.4.3q.6.2.6.3c0,.2-.1.3-.4.3h-2.3c-.3,0-.5-.1-.5-.3s.2-.2.6-.3l.4-.3a1.1,1.1,0,0,0,.1-.5Z"/></svg>