<svg id="Layer_1" data-name="Layer 1" xmlns="http://www.w3.org/2000/svg" viewBox="0 0 233 50"><defs><style>.cls-1{fill:#ef4f23;}.cls-2{fill:#fff;}</style></defs><title>logo</title><path class="cls-1" d="M73.3.6a18.3,18.3,0,0,0-5.8,4.6,53.4,53.4,0,0,1,5.2,4c4,4.1.1.8.1.8s-7.3-7-13.3-9S48.6,2.2,48.6,2.2,41,7.1,51.3,23.3C59,35.6,68,35.7,68,35.7s9-1.9,12.9-13c5.8-16.2-.2-20.9-.2-20.9A6.9,6.9,0,0,0,73.3.6Z"/><path class="cls-2" d="M68,22c.7-2.4,8-3.8,8-6.8s-4.2-6-4.2-6,.3.4.8.8,2.8,3.2,1.5,5.4-9.8,1.2-11.8,5.1c-3,6,1.4,15.2,1.4,15.2a12.2,12.2,0,0,0,4.5.3A7.2,7.2,0,0,0,72.5,34S66,28.7,68,22Z"/><path class="cls-2" d="M4.1,29.8.3,7.2H6.9L8,15.4a35.2,35.2,0,0,1,.4,4.5h.1L10.9,9.2h5.4L18.5,20h.1a43,43,0,0,1,.3-4.3l1.2-8.4h6.5L22.9,29.8H16.7l-2.2-7.8a40.9,40.9,0,0,1-1-4.6h-.1a33.1,33.1,0,0,1-1,4.8l-2.2,7.6Z"/><path class="cls-2" d="M28.7,7.2H44.1v5.5H35.5v3H43v5.4H35.5v3.2h9v5.5H28.7Z"/><path class="cls-2" d="M109.5,6.9l1.4,22.6h-6.2l-.4-11.1h-.1c-.2,1.3-.8,3.1-.9,3.6l-1.7,5.6H96.3L94.7,22a34.9,34.9,0,0,1-.9-3.6h-.2L93,29.6H86.6L88.3,6.9h7.1l2.3,8C98,16,98.8,19,99,20.2h.1a39.9,39.9,0,0,1,1.2-5.3l2.4-8Z"/><path class="cls-2" d="M113.5,6.9h15.4v5.5h-8.6v3h7.5v5.4h-7.5V24h9v5.5H113.5Z"/><path class="cls-2" d="M150.2,29.6h-7.4l-3.6-8.4h-.8v8.4h-6.8V6.9h8.5c5.2,0,8.7,2,8.7,6.5a6.9,6.9,0,0,1-3.5,6.4ZM139.8,16a2,2,0,0,0,2.1-2.1c0-1.6-.9-1.9-2.5-1.9h-1v4Z"/><path class="cls-2" d="M150,6.9h18.6v5.5h-5.9V29.6h-6.8V12.5H150Z"/><path class="cls-2" d="M189.1,6.9V29.6h-6.8V21.2h-5v8.3h-6.8V6.9h6.8v8.3h5V6.9Z"/><path class="cls-2" d="M202.8,12.9l2.3-6h7.4L205,21.7v7.9h-6.8V21.8L190.7,6.9h7.5l2.6,6.2a17.8,17.8,0,0,1,.9,3.3h.2A17.8,17.8,0,0,1,202.8,12.9Z"/><path class="cls-2" d="M232.7,29.6h-7.4l-3.6-8.4h-.8v8.4h-6.8V6.9h8.5c5.2,0,8.7,2,8.7,6.5a6.9,6.9,0,0,1-3.5,6.4ZM222.3,16a2,2,0,0,0,2.1-2.1c0-1.6-.9-1.9-2.5-1.9h-1v4Z"/><path class="cls-2" d="M15,46.8h-.1v-.4h0v-.3h0v-.3H12.2v1.6h0v1.2H10.3V44.2a.7.7,0,0,0,0-.2c0-.4,0-.8,0-1.1s0-.8,0-1.1,0-1,0-1.4,0-1,0-1.5h2.2v.8h0v1.2h0V42h2.4q0-.6,0-1.1t0-1.1v-.2q0-.1,0-.2v-.5h2.2v1h0v1.6h.1a.1.1,0,0,1,0,.1h0a.2.2,0,0,0,0,.1v.4h0a.2.2,0,0,0,0,.1v.3h0v1h0v1H15v-.8Z"/><path class="cls-2" d="M20.5,47.5H18.9l-.5-.5-.3-.6-.2-.5v-.8c0-.1,0-.3,0-.5v-.4l.2-.6.2-.5.3-.5.4-.4.3-.3.4-.2h4.1l.2.2h.3l.3.6.2.6v.6a6.1,6.1,0,0,1,0,.7h0V45h0v.5l-.2.5-.2.2v.4l-.2.3-.4.3-.4.2H20.5Zm-.7-3.7v.6H20V45h1.6l.5-.2.4-.3.3-.4a1.4,1.4,0,0,0,.1-.5h0v-1l-.2-.4-.4-.3H20.4l-.2.2-.2.2v.3h-.1v.5Z"/><path class="cls-2" d="M25.5,46.7v-3h0v-.8h0V41.2h2.1v.5h.1l.2-.2.2-.2h3.4l.4-.3.4-.3.4-.2H35l.2.3v5H34.1c0-.2,0-.5,0-.8v-.7h0v-.3h0v-.7h0V43.4l-.4-.5-.6-.2h-1v1.2c0,.1,0,.1,0,.2v.4h0v1.2c0,.1,0,.2,0,.3H30v-.3h0a1.3,1.3,0,0,1,0-.2v-.5c0-.1,0-.1,0-.2h0V45h0V43.3a1,1,0,0,0-.4-.5l-.7-.2h-.4l-.2.2-.2.2-.2.2v.9h0v.4h0v.6h0v.3h0v.3h0v.4H25.6v-.8Z"/><path class="cls-2" d="M36.5,44V42.7H37l.2-.3.2-.3h.3l.5-.3.6-.3.6-.2h1.3l.7.2.5.2.3.2.2.2h.2l.3.3.2.3.2.3.2.4v.9H38.4v.3h.3l.5.4h2.2l.3-.2.2-.2h1.5a.3.3,0,0,1-.1.2l-.2.2-.5.5-.6.4H38.3l-.2-.2-.4-.3-.4-.4H37v-.3h-.1v-.7a4.7,4.7,0,0,1,0-.7Zm3.8-1.7h-.5l-.5.2h-.2l-.2.2v.4h2.9l-.6-.4Z"/><path class="cls-2" d="M50.1,47.5H48.5l-.5-.5-.3-.6-.2-.5v-.8c0-.1,0-.3,0-.5v-.4l.2-.6.2-.5.3-.5.4-.4.3-.3.4-.2h4.1l.2.2h.3l.3.6.2.6v.6a5.9,5.9,0,0,1,0,.7h0V45h0v.5l-.2.5-.2.2v.4l-.2.3-.4.3-.4.2H50.1Zm-.7-3.7v.6h.1V45h1.6l.5-.2.4-.3.3-.4a1.4,1.4,0,0,0,.1-.5h0v-1l-.2-.4-.4-.3H50l-.2.2-.2.2v.3h-.1v.5Z"/><path class="cls-2" d="M56.4,47.7h-.6V47h0q-.1-1-.1-2t0-2v-.3h-.9v-.2h0V41.1h1V40h.3l.2-.3.3-.2h2.2l.3.2h.3v1H57.9v.2h1v1.6H58v.4h0v.5c0,.1,0,.2,0,.3v1.5c0,.1,0,.2,0,.3h0v.9c0,.1,0,.2,0,.3v.3H56.4Z"/><path class="cls-2" d="M63.1,47.6a4,4,0,0,1,0-.4V45.6a.6.6,0,0,1,0-.1v-.4h0v-.9h0V43s0-.1,0-.1h0v-.2a.7.7,0,0,0,.1-.3h0v-.6h.2v-.2a1.4,1.4,0,0,0,0-.2h0a.5.5,0,0,1,0-.1h0V39h2.1v.3h.1a1.2,1.2,0,0,0,0,.2V40h.3v.4h.1a.4.4,0,0,1,0,.1h.3l.3.6.3.6v.6h0v-.6s0-.1,0-.1h.3v-.4h.2l.2-.5h.1V40l.2-.4.2-.4h2v.7h0v.2h.1v.5h.1v.3h.1a.9.9,0,0,0,0,.2v.6h0v.5h0v1.3h.1v.5h0v.7h0v.2c0,.1,0,.2,0,.2H71.6v-.7h0V45.4h-.1V42.6h-.4v.5a4.8,4.8,0,0,1-.2.9l-.3.9h0V46h0v.3h-.1V47l-.2.4H67.6v-1H67v-.9h-.3v-.4h0V43a2.6,2.6,0,0,0,0,.3h-.1v2.6h0v.3a.3.3,0,0,0,0,.2v.2h-2Z"/><path class="cls-2" d="M74.1,44V42.7h.1l.2-.3.2-.3h.3l.5-.3.6-.3.6-.2h1.3l.7.2.5.2.3.2.2.2h.2l.3.3.2.3.2.3.2.4v.9H76v.3h.3l.5.4H79l.3-.2.2-.2h1.5a.3.3,0,0,1-.1.2l-.2.2-.5.5-.6.4H75.8l-.2-.2-.4-.3-.4-.4h-.4v-.3h-.1v-.7a4.7,4.7,0,0,1,0-.7Zm3.8-1.7h-.5l-.5.2h-.2l-.2.2v.4h2.9l-.6-.4Z"/><path class="cls-2" d="M82.3,47.7h-.4a.9.9,0,0,1,0-.1h0a3,3,0,0,0,0-.3c0-.2,0-.4,0-.6V43.6c0-.3,0-.5,0-.7a.7.7,0,0,0,0-.1v-.4a.5.5,0,0,1,0-.2h0a1.9,1.9,0,0,0,0-.2v-.2h1.9a.4.4,0,0,1,0,.2.4.4,0,0,0,0,.2h2.7l.4.2.3.2h-.4l-.2.2-.2.2h-.6l-.5-.2h-.8l-.2.3h-.3v.6a6.4,6.4,0,0,0-.1,1,8.1,8.1,0,0,0,.1.8v1.1h0v.3H82.3Z"/><path class="cls-2" d="M88.7,47.4h.1v-.9h0v-.3h0V42.7h-1V41.2h0V41h1.1a6.7,6.7,0,0,0,0-.8,6.8,6.8,0,0,1,0-.8h1.9v.4c0,.1,0,.3,0,.4v.7q0,.1,0,.3h1.1V41c0,.2,0,.4,0,.5a3.2,3.2,0,0,0,0,.6h-1v.5h0c0,.1,0,.2,0,.3v3.7H88.7Z"/><path class="cls-2" d="M92.5,47.7h-.2a.8.8,0,0,1,0-.3h0c0-.2,0-.4,0-.7V45.4c0-.2,0-.4,0-.5h-.1v-.3h0a1.1,1.1,0,0,0,0-.2V42c0-.3,0-.6,0-.9h0v-.7c0-.1,0-.2,0-.3v-.5c0-.1,0-.2,0-.3h0a.3.3,0,0,0,0-.1h1.9v2.7h.6l.6-.2h1.9l.2.2.2.2.2.2h.3V43c0,.1,0,.3,0,.4s0,.3,0,.3v.9h0a4.2,4.2,0,0,0,0,.5q0,.3,0,.7v1.4H96.5v-1h0v-.4h0V43.8h-.1v-.3h-1l-.3.2-.2.3-.2.3v.3h-.1v.5h-.1v1.8c0,.1,0,.2,0,.2h0v.5H92.5Z"/><path class="cls-2" d="M101.4,49.4l.2-.5.2-.4.2-.4v-.4h0v-.2h.2a.3.3,0,0,0,0-.1v-.6l-.2-.3v-.2h0l-.2-.3v-.8h-.1v-.6l-.4-.6-.3-.6-.4-.6-.4-.6h2.1l.4.6.4.6h.3v.4h.1v.4h.2V42.4l.2-.5.2-.5h2.6a.7.7,0,0,1,0,.1h-.1v.5l-.2.5-.2.5-.2.5-.3.9-.3.9-.2.4-.2.4v.6h-.1v.2h0a.7.7,0,0,0,0,.1h-.3v.3h0a1,1,0,0,1,0,.2v.2l-.5,1.5h-2v-.4Z"/><path class="cls-2" d="M107.6,47.7h-.4a.9.9,0,0,1,0-.1h0a3,3,0,0,0,0-.3c0-.2,0-.4,0-.6V43.6c0-.3,0-.5,0-.7a.7.7,0,0,0,0-.1v-.4a.5.5,0,0,1,0-.2h0a1.9,1.9,0,0,0,0-.2v-.2h1.9a.4.4,0,0,1,0,.2.4.4,0,0,0,0,.2h2.7l.4.2.3.2h-.4l-.2.2-.2.2h-.6l-.5-.2h-.8l-.2.3h-.3v.6a6.4,6.4,0,0,0-.1,1,8.1,8.1,0,0,0,.1.8v1.1h0v.3h-1.6Z"/><path class="cls-2" d="M117.9,47.6v-.8h0v-.2h0v-.5c0-.2,0-.3,0-.5a4.2,4.2,0,0,1,0-.5h0c0-.3,0-.5,0-.8V41.1h-.1v-.2h-1.6a3.1,3.1,0,0,1-.1-.6c0-.2,0-.4,0-.6h0v-.4h5.3v.9h0a1.2,1.2,0,0,1,0,.3h-1.5v1.1a.6.6,0,0,1,0,.2,1.2,1.2,0,0,0,0,.3h0v2.1c0,.1,0,.2,0,.3v.3h0v.8h0v.4a2.7,2.7,0,0,0,0,.4h-2.1Z"/><path class="cls-2" d="M123.3,49.4l.2-.5.2-.4.2-.4v-.4h0v-.2h.2a.3.3,0,0,0,0-.1v-.6l-.2-.3v-.2h0l-.2-.3v-.8h-.1v-.6l-.4-.6-.3-.6-.4-.6-.4-.6h2.1l.4.6.4.6h.3v.4h.1v.4h.2V42.4l.2-.5.2-.5h2.6a.7.7,0,0,1,0,.1h-.1v.5l-.2.5-.2.5-.2.5-.3.9-.3.9-.2.4-.2.4v.6h-.1v.2h0a.7.7,0,0,0,0,.1H126v.3h0a1,1,0,0,1,0,.2v.2l-.5,1.5h-2v-.4Z"/><path class="cls-2" d="M128.5,45.1h0a3.2,3.2,0,0,0,0-.3,3.2,3.2,0,0,1,0-.3V42.8l.2-.6.3-.6h3.4l.4.2.4.2.3.2h0c0-.2,0-.3,0-.5s0-.3,0-.5V39h1.9v.2h0c0,.2,0,.4,0,.6s0,.4,0,.5,0,.3,0,.5v1.2q0,.3,0,.7v1h0a.7.7,0,0,1,0,.1v.4h0v.5h0v.4h0v.2h-1.7v-.5l-.5.3-.5.2h-3.3l-.2-.3-.2-.4v-.5h-.2Zm2.5.2h1.4l.5-.3h.6V44h0v-.2h-.3l-.3-.3-.4-.2h-2l-.2.3v.4h0v.4h0Z"/><path class="cls-2" d="M137.6,47.7H137V47h0q-.1-1-.1-2t0-2v-.3H136v-.2h0V41.1h1V40h.3l.2-.3.3-.2H140l.3.2h.3v1h-1.1v.2h1v1.6h-.8v.4h0v.5q0,.2,0,.3v1.5c0,.1,0,.2,0,.3h0c0,.1,0,.2,0,.3s0,.2,0,.3v.3c0,.1,0,.2,0,.3v.3h-1.5Z"/><path class="cls-2" d="M141.2,39.2v-.7h1.4l.4.4a1,1,0,0,1,.2.5c0,.1,0,.2,0,.3v.4l-.2.2-.3.2h-1.2l-.2-.2v-.4A2.3,2.3,0,0,1,141.2,39.2Zm.1,4.1V42h0v-.6h2a1.2,1.2,0,0,1,0,.2h0v4.2c0,.1,0,.1,0,.3s0,.2,0,.4V47h0a.6.6,0,0,1,0,.3h-2.1v-.2a2.4,2.4,0,0,1,0-.3,2.3,2.3,0,0,0,0-.3v-.8q0-.1,0-.3V44.5c0-.2,0-.4,0-.6S141.4,43.5,141.4,43.3Z"/><path class="cls-2" d="M146.5,47.5h-1.6V47h0V45.3c0-.2,0-.4,0-.6V44h0v-.4h0l-.2-4.4h1.8V39h0v.2h0v.8h0v.4h0s0,0,0,0h0v.6h0v.5h0c0,.1,0,.2,0,.3v.9c0,.1,0,.2,0,.3v1h0v.4h0v.3h-.4Z"/><path class="cls-2" d="M152.5,47.6v-.8h0v-.2h0v-.5c0-.2,0-.3,0-.5a4.7,4.7,0,0,1,0-.5h0q0-.4,0-.8V41.1h-.1v-.2h-1.6a3,3,0,0,1-.1-.6c0-.2,0-.4,0-.6h0v-.4h5.3v.9h0a1.2,1.2,0,0,1,0,.3h-1.5v1.1a.6.6,0,0,1,0,.2,1.1,1.1,0,0,0,0,.3h0v2.1c0,.1,0,.2,0,.3v.3h0v.8h0v.4a2.8,2.8,0,0,0,0,.4h-2.1Z"/><path class="cls-2" d="M158.6,47.5H157l-.5-.5-.3-.6-.2-.5v-.8c0-.1,0-.3,0-.5v-.4l.2-.6.2-.5.3-.5.4-.4.3-.3.4-.2h4.1l.2.2h.3l.3.6.2.6v.6a6.1,6.1,0,0,1,0,.7h0V45h0v.5l-.2.5-.2.2v.4l-.2.3-.4.3-.4.2h-2.4Zm-.7-3.7v.6h.1V45h1.6l.5-.2.4-.3.3-.4a1.4,1.4,0,0,0,.1-.5h0v-1l-.2-.4-.4-.3h-1.8l-.2.2-.2.2v.3h-.1v.5Z"/><path class="cls-2" d="M168.6,45.8h-.1v-.2h0v-.7h0v1.9h-.1v1h-1.5v-.2h-.1V47h0l-.2-.6-.2-.6h-.3v-.4h-.1l-.4-1.3v-.6h1.7v.2h.2l.6,1.3h.2V43h.3v-1h1.6v3.1h.2v-.4h.2v-.4h.1v-.4h.1v-.3h2.1a1.6,1.6,0,0,1,0,.3v.3l-.3.8-.3.8h0v.4h0l-.3.7-.3.7v1h-.1V47h-.1v.2h-2v-.8Z"/><path class="cls-2" d="M174.3,47.6H174c0-.3,0-.5,0-.8v-.8c0-.3,0-.5,0-.8s0-.5,0-.8v-.3h0v-.3h0v-.7h0v-.7a2,2,0,0,0,0-.3v-.5h1.8v.2l.5-.3.5-.2h2.3l.3.3.2.3v.7h0v.6h0v.4h0v1.1h0c0,.1,0,.2,0,.3s0,.2,0,.3,0,.2,0,.4v.3c0,.1,0,.2,0,.3H178a.6.6,0,0,1,0-.1h0v-.5c0-.1,0-.2,0-.3v-.2h0V44.7a4,4,0,0,0,0-.4,4.5,4.5,0,0,0-.1-.5v-.5l-.2-.4-.2-.3h-1.1l-.3.3-.2.5v1.1h0v.7h0V47h0a.4.4,0,0,1,0,.1h-1.4Z"/><path class="cls-2" d="M187.1,47.5l-.6-.3L186,47l-.3-.2-.2-.2h-.6v-.2h0l-.2-.4v-3h0a2.5,2.5,0,0,1,0-.4v-.4h.1v-1l.2-.3.3-.3.3-.3.4-.3.5-.2h4.2v.2l-.2.3-.2.2h-2.7l-.4.3-.4.4h-.4v.2h0v.3H186c0,.2,0,.4,0,.5a2.2,2.2,0,0,0,.1.5v.3h.3l.3.4.3.3.4.3.5.2h2.5l.2.2.2.3h.1v.3h.2v.2h-.4l-.3.2h-3.5Z"/><path class="cls-2" d="M191.4,44V42.7h.1l.2-.3.2-.3h.3l.5-.3.6-.3.6-.2h1.3l.7.2.5.2.3.2.2.2h.2l.3.3.2.3.2.3.2.4v.9h-5.2v.3h.3l.5.4h2.2l.3-.2.2-.2h1.5a.3.3,0,0,1-.1.2l-.2.2-.5.5-.6.4h-3.6l-.2-.2-.4-.3-.4-.4h-.4v-.3h-.1v-.7a4.7,4.7,0,0,1,0-.7Zm3.8-1.7h-.5l-.5.2h-.2l-.2.2v.4h2.9l-.6-.4Z"/><path class="cls-2" d="M199.3,47.6h-.2c0-.3,0-.5,0-.8v-.8c0-.3,0-.5,0-.8s0-.5,0-.8v-.3h0v-.3h0v-.7h0v-.7a2,2,0,0,0,0-.3v-.5h1.8v.2l.5-.3.5-.2h2.3l.3.3.2.3v.7h0v.6h0v.4h0v1.1h0c0,.1,0,.2,0,.3s0,.2,0,.3,0,.2,0,.4v.3c0,.1,0,.2,0,.3h-1.9a.6.6,0,0,1,0-.1h0v-.5c0-.1,0-.2,0-.3v-.2h0V44.7a4,4,0,0,0,0-.4,4.5,4.5,0,0,0-.1-.5v-.5l-.2-.4-.2-.3h-1.1l-.3.3-.2.5v1.1h0v.7h0V47h0a.4.4,0,0,1,0,.1h-1.4Z"/><path class="cls-2" d="M206.8,47.4h.1v-.9h0v-.3h0V42.7h-1V41.2h0V41h1.1a6.7,6.7,0,0,0,0-.8,6.8,6.8,0,0,1,0-.8h1.9v.4c0,.1,0,.3,0,.4v.7q0,.1,0,.3h1.1V41c0,.2,0,.4,0,.5a3.1,3.1,0,0,0,0,.6h-1v.5h0c0,.1,0,.2,0,.3v3.7h-2.1Z"/><path class="cls-2" d="M210.9,47.7h-.4a.9.9,0,0,1,0-.1h0a3,3,0,0,0,0-.3c0-.2,0-.4,0-.6V43.6c0-.3,0-.5,0-.7a.7.7,0,0,0,0-.1v-.4a.5.5,0,0,1,0-.2h0a1.9,1.9,0,0,0,0-.2v-.2h1.9a.4.4,0,0,1,0,.2.4.4,0,0,0,0,.2h2.7l.4.2.3.2h-.4l-.2.2-.2.2h-.6l-.5-.2H213l-.2.3h-.3v.6a6.4,6.4,0,0,0-.1,1,8.1,8.1,0,0,0,.1.8v1.1h0v.3h-1.6Z"/><path class="cls-2" d="M215.9,44V42.7h.1l.2-.3.2-.3h.3l.5-.3.6-.3.6-.2H220l.7.2.5.2.3.2.2.2h.2l.3.3.2.3.2.3.2.4v.9h-5.2v.3h.3l.5.4h2.2l.3-.2.2-.2h1.5a.3.3,0,0,1-.1.2l-.2.2-.5.5-.6.4h-3.6l-.2-.2-.4-.3-.4-.4h-.4v-.3h-.1v-.7a4.7,4.7,0,0,1,0-.7Zm3.8-1.7h-.5l-.5.2h-.2l-.2.2v.4h2.9l-.6-.4Z"/></svg>