<svg id="Layer_1" data-name="Layer 1" xmlns="http://www.w3.org/2000/svg" viewBox="0 0 225.9 35"><defs><style>.cls-1{fill:#ef4f23;}.cls-2{fill:#fff;}</style></defs><title>logo</title><path class="cls-1" d="M71,.6a17.8,17.8,0,0,0-5.6,4.5,51.9,51.9,0,0,1,5,3.9c3.9,4,.1.8.1.8S63.4,2.9,57.5,1,47,2.2,47,2.2s-7.4,4.8,2.6,20.5c7.5,12,16.3,12,16.3,12s8.7-1.9,12.5-12.6C84,6.3,78.2,1.7,78.2,1.7A6.7,6.7,0,0,0,71,.6Z" transform="translate(0 0)"/><path class="cls-2" d="M65.9,21.4c.7-2.3,7.8-3.7,7.8-6.6s-4.1-5.9-4.1-5.9.3.4.8.8,2.7,3.1,1.5,5.2-9.5,1.1-11.4,5c-2.9,5.8,1.4,14.8,1.4,14.8a11.9,11.9,0,0,0,4.4.3,7,7,0,0,0,4-1.9S63.9,27.9,65.9,21.4Z" transform="translate(0 0)"/><path class="cls-2" d="M3.7,29,0,7H6.4l1.1,8a34.3,34.3,0,0,1,.4,4.4H8L10.3,8.9h5.2l2.2,10.5h.1a41.8,41.8,0,0,1,.3-4.2L19.3,7h6.4L22,29H16l-2.1-7.6a39.8,39.8,0,0,1-1-4.5h-.1a32.2,32.2,0,0,1-1,4.7L9.7,29Z" transform="translate(0 0)"/><path class="cls-2" d="M27.6,7h15v5.4H34.2v2.9h7.3v5.2H34.2v3.1H43V29H27.6Z" transform="translate(0 0)"/><path class="cls-2" d="M106.2,6.7l1.4,22h-6.1l-.4-10.8h-.1c-.2,1.2-.7,3.1-.9,3.5l-1.6,5.4H93.4l-1.6-5.4a33.9,33.9,0,0,1-.9-3.5h-.2l-.5,10.8H84l1.6-22h6.9l2.3,7.8c.3,1.1,1.1,4,1.3,5.2H96a38.8,38.8,0,0,1,1.2-5.2l2.3-7.8Z" transform="translate(0 0)"/><path class="cls-2" d="M110.1,6.7h15v5.4h-8.4V15H124v5.2h-7.3v3.1h8.7v5.4H110.1Z" transform="translate(0 0)"/><path class="cls-2" d="M145.7,28.7h-7.2L135,20.6h-.8v8.1h-6.6V6.7H136c5.1,0,8.5,1.9,8.5,6.3a6.7,6.7,0,0,1-3.4,6.2ZM135.7,15.6a1.9,1.9,0,0,0,2.1-2c0-1.5-.9-1.8-2.4-1.8h-1v3.9Z" transform="translate(0 0)"/><path class="cls-2" d="M145.6,6.7h18.1v5.4h-5.7V28.7h-6.6V12.1h-5.7Z" transform="translate(0 0)"/><path class="cls-2" d="M183.6,6.7v22H177V20.6h-4.9v8.1h-6.6V6.7h6.6v8.1H177V6.7Z" transform="translate(0 0)"/><path class="cls-2" d="M196.9,12.5l2.2-5.8h7.2l-7.3,14.4v7.7h-6.6V21.2L185.1,6.7h7.3l2.5,6a17.3,17.3,0,0,1,.9,3.2h.2A17.3,17.3,0,0,1,196.9,12.5Z" transform="translate(0 0)"/><path class="cls-2" d="M226,28.7h-7.2l-3.5-8.1h-.8v8.1h-6.6V6.7h8.3c5.1,0,8.5,1.9,8.5,6.3a6.7,6.7,0,0,1-3.4,6.2ZM215.9,15.6a1.9,1.9,0,0,0,2.1-2c0-1.5-.9-1.8-2.4-1.8h-1v3.9Z" transform="translate(0 0)"/></svg>