<?xml version="1.0" encoding="utf-8"?>
<!-- Generator: Adobe Illustrator 21.1.0, SVG Export Plug-In . SVG Version: 6.00 Build 0)  -->
<svg version="1.1" id="Layer_1" xmlns="http://www.w3.org/2000/svg" xmlns:xlink="http://www.w3.org/1999/xlink" x="0px" y="0px"
	 viewBox="0 0 270 120" style="enable-background:new 0 0 270 120;" xml:space="preserve">
<style type="text/css">
	.st0{fill:none;}
	.st1{fill:#FFFFFF;}
</style>
<rect class="st0" width="270" height="120"/>
<g>
	<path class="st1" d="M109.6,70.5V49.5h4.3v18.2h4.2v2.9H109.6z"/>
	<path class="st1" d="M119.2,63.6v-7.1c0-5,2.1-7.5,6.2-7.5c4.1,0,6.2,2.5,6.2,7.5v7c0,0.8-0.1,1.6-0.2,2.3s-0.3,1.4-0.6,2
		s-0.7,1.2-1.1,1.6s-1.1,0.8-1.8,1.1s-1.5,0.4-2.4,0.4c-0.9,0-1.7-0.1-2.4-0.4s-1.3-0.6-1.8-1s-0.8-1-1.1-1.6s-0.5-1.3-0.6-2
		S119.2,64.5,119.2,63.6z M127.3,64.6v-9.1c0-2.1-0.6-3.1-1.9-3.1c-0.4,0-0.7,0.1-1,0.3s-0.5,0.5-0.6,0.8s-0.2,0.7-0.3,1
		s-0.1,0.7-0.1,1.1v9.1c0,2.1,0.6,3.1,1.9,3.1C126.6,67.7,127.3,66.6,127.3,64.6z"/>
	<path class="st1" d="M133.5,63.9v-7.4c0-5,2.1-7.5,6.2-7.5c0.9,0,1.7,0.1,2.3,0.3s1.3,0.5,1.7,1s0.8,0.9,1.1,1.5s0.5,1.2,0.6,1.9
		s0.2,1.5,0.2,2.3v1.2h-4.1v-1.5c0-0.4,0-0.7,0-1s-0.1-0.6-0.1-0.9s-0.2-0.6-0.3-0.8s-0.3-0.4-0.6-0.6s-0.5-0.2-0.9-0.2
		c-1.3,0-2,1-2,3.1v9.1c0,2.1,0.7,3.1,2,3.1c1.3,0,1.9-1.1,1.9-3.2v-1.7h-2.4v-3.1h6.7v10.9H143l-0.5-1.5c-0.4,0.6-0.9,1-1.5,1.4
		s-1.3,0.5-2.1,0.5c-0.8,0-1.4-0.1-2.1-0.4s-1.1-0.6-1.5-1.1s-0.7-1-1-1.6s-0.5-1.2-0.6-1.9S133.5,64.6,133.5,63.9z"/>
	<path class="st1" d="M148,63.6v-7.1c0-5,2.1-7.5,6.2-7.5c4.1,0,6.2,2.5,6.2,7.5v7c0,0.8-0.1,1.6-0.2,2.3s-0.3,1.4-0.6,2
		s-0.7,1.2-1.1,1.6s-1.1,0.8-1.8,1.1s-1.5,0.4-2.4,0.4c-0.9,0-1.7-0.1-2.4-0.4s-1.3-0.6-1.8-1s-0.8-1-1.1-1.6s-0.5-1.3-0.6-2
		S148,64.5,148,63.6z M156.1,64.6v-9.1c0-2.1-0.6-3.1-1.9-3.1c-0.4,0-0.7,0.1-1,0.3s-0.5,0.5-0.6,0.8s-0.2,0.7-0.3,1
		s-0.1,0.7-0.1,1.1v9.1c0,2.1,0.6,3.1,1.9,3.1C155.5,67.7,156.1,66.6,156.1,64.6z"/>
</g>
</svg>
